<svg width="42" height="62" viewBox="0 0 42 62" fill="none" xmlns="http://www.w3.org/2000/svg">
<path d="M41.7101 62.0001L31.2599 54.5906L21.2211 62.0001V44.4941H41.7101V62.0001Z" fill="#ED1651"/>
<path d="M21.2211 31.3649C21.2211 37.0047 25.8258 41.5766 31.4656 41.5766C37.1054 41.5766 41.7101 37.0047 41.7101 31.3649C41.7101 25.7251 37.1054 21.1531 31.4656 21.1531C25.8258 21.1531 21.2211 25.7251 21.2211 31.3649Z" fill="#FFCB05"/>
<path d="M20.489 0H0V20.4236H20.489V0Z" fill="#00C0F3"/>
<path d="M10.2485 27.4759L3.90543 21.1531L0 25.046L6.34311 31.3689L0 37.6918L3.90543 41.5847L10.2485 35.2618L16.5916 41.5847L20.4971 37.6918L14.1539 31.3689L20.4971 25.046L16.5916 21.1531L10.2485 27.4759Z" fill="#5319B2"/>
<path d="M21.2211 0L41.7101 20.4236V0H21.2211Z" fill="#A6CE39"/>
</svg>
